<svg width="346" height="134" viewBox="0 0 346 134" fill="none" xmlns="http://www.w3.org/2000/svg">
<g filter="url(#filter0_i_316_132)">
<path d="M19 49.25L17.5858 50.6642L18.9953 52.0737L20.4095 50.6689L19 49.25ZM7 37.25L5.58579 35.8358L4.17157 37.25L5.58579 38.6642L7 37.25ZM19 25.25L20.4095 23.8311L18.9953 22.4263L17.5858 23.8358L19 25.25ZM22.75 28.975L24.1409 30.4121L25.6066 28.9936L24.1595 27.5561L22.75 28.975ZM14.2 37.25L12.8091 35.8129L11.3242 37.25L12.8091 38.6871L14.2 37.25ZM22.75 45.525L24.1595 46.9439L25.6066 45.5064L24.1409 44.0879L22.75 45.525ZM20.4142 47.8358L8.41421 35.8358L5.58579 38.6642L17.5858 50.6642L20.4142 47.8358ZM8.41421 38.6642L20.4142 26.6642L17.5858 23.8358L5.58579 35.8358L8.41421 38.6642ZM17.5905 26.6689L21.3405 30.3939L24.1595 27.5561L20.4095 23.8311L17.5905 26.6689ZM21.3591 27.5379L12.8091 35.8129L15.5909 38.6871L24.1409 30.4121L21.3591 27.5379ZM12.8091 38.6871L21.3591 46.9621L24.1409 44.0879L15.5909 35.8129L12.8091 38.6871ZM21.3405 44.1061L17.5905 47.8311L20.4095 50.6689L24.1595 46.9439L21.3405 44.1061ZM42.1598 52.525L41.4013 54.3756L41.4104 54.3793L41.4196 54.383L42.1598 52.525ZM36.7848 48.875L35.3408 50.2588L35.3483 50.2666L36.7848 48.875ZM33.1848 43L31.3099 43.6964L31.3116 43.7008L33.1848 43ZM34.0848 24.925L35.8541 25.8574L35.8564 25.853L34.0848 24.925ZM40.1098 18.5L41.1154 20.2288L41.1238 20.2239L40.1098 18.5ZM59.2598 19.35L58.0104 20.9117L58.0159 20.9162L58.0215 20.9205L59.2598 19.35ZM64.5348 28L64.8479 29.9753L66.9978 29.6345L66.4766 27.5211L64.5348 28ZM58.3848 28.975L56.4801 29.5851L57.0034 31.219L58.6979 30.9503L58.3848 28.975ZM55.0348 23.875L53.7593 25.4155L53.7692 25.4237L55.0348 23.875ZM49.1098 21.95L49.0822 23.9498L49.096 23.95H49.1098V21.95ZM43.0848 23.525L44.2061 25.1811L44.2061 25.1811L43.0848 23.525ZM39.4598 28.1L37.6127 27.333L37.6099 27.3397L37.6072 27.3464L39.4598 28.1ZM39.4598 41.875L37.6094 42.6341L37.6117 42.6397L39.4598 41.875ZM43.0598 46.4L41.9384 48.0561L41.9464 48.0615L43.0598 46.4ZM49.1098 48.075L49.0822 50.0748L49.0914 50.0749L49.1098 48.075ZM53.8848 47.1L54.7616 48.8975L54.7704 48.8932L54.7792 48.8889L53.8848 47.1ZM57.2348 44.025L58.9238 45.0961L58.9296 45.0868L57.2348 44.025ZM58.9848 38.85L60.964 39.1373L61.2961 36.85H58.9848V38.85ZM52.6348 38.85H50.6348V40.85H52.6348V38.85ZM52.6348 34.125V32.125H50.6348V34.125H52.6348ZM65.3848 34.125L67.3693 33.8769L67.1503 32.125H65.3848V34.125ZM65.4598 35.3L67.4587 35.2355L67.4587 35.2355L65.4598 35.3ZM63.4598 45.3L61.6777 44.3921L61.6755 44.3965L63.4598 45.3ZM57.7098 51.5L58.7388 53.215L58.7388 53.215L57.7098 51.5ZM48.7348 51.75C46.6402 51.75 44.7011 51.3846 42.8999 50.667L41.4196 54.383C43.7184 55.2988 46.1627 55.75 48.7348 55.75V51.75ZM42.9182 50.6744C41.1437 49.9471 39.582 48.8881 38.2212 47.4834L35.3483 50.2666C37.0875 52.0619 39.1092 53.4362 41.4013 54.3756L42.9182 50.6744ZM38.2287 47.4912C36.9041 46.109 35.8405 44.391 35.058 42.2992L31.3116 43.7008C32.2623 46.2423 33.5988 48.441 35.3408 50.2588L38.2287 47.4912ZM35.0596 42.3036C34.2908 40.2336 33.8848 37.8097 33.8848 35H29.8848C29.8848 38.1903 30.3454 41.0997 31.3099 43.6964L35.0596 42.3036ZM33.8848 35C33.8848 31.3118 34.5722 28.2902 35.8541 25.8574L32.3154 23.9926C30.664 27.1265 29.8848 30.8215 29.8848 35H33.8848ZM35.8564 25.853C37.1613 23.3619 38.9145 21.509 41.1154 20.2288L39.1041 16.7712C36.205 18.4576 33.9416 20.8881 32.3131 23.997L35.8564 25.853ZM41.1238 20.2239C43.3415 18.9193 45.8613 18.25 48.7348 18.25V14.25C45.2083 14.25 41.978 15.0807 39.0957 16.7761L41.1238 20.2239ZM48.7348 18.25C52.8683 18.25 55.8859 19.2121 58.0104 20.9117L60.5092 17.7883C57.467 15.3545 53.4679 14.25 48.7348 14.25V18.25ZM58.0215 20.9205C60.219 22.6532 61.7654 25.1238 62.593 28.4789L66.4766 27.5211C65.4708 23.4429 63.5005 20.1468 60.4981 17.7795L58.0215 20.9205ZM64.2216 26.0247L58.0716 26.9997L58.6979 30.9503L64.8479 29.9753L64.2216 26.0247ZM60.2894 28.3649C59.5027 25.9088 58.1844 23.866 56.3003 22.3263L53.7692 25.4237C54.9851 26.4173 55.9001 27.7745 56.4801 29.5851L60.2894 28.3649ZM56.3102 22.3345C54.3355 20.6995 51.8818 19.95 49.1098 19.95V23.95C51.1377 23.95 52.634 24.4838 53.7593 25.4155L56.3102 22.3345ZM49.1373 19.9502C46.4148 19.9126 43.9787 20.5044 41.9635 21.8689L44.2061 25.1811C45.3908 24.3789 46.9714 23.9207 49.0822 23.9498L49.1373 19.9502ZM41.9635 21.8689C40.0072 23.1935 38.5633 25.0437 37.6127 27.333L41.3068 28.867C41.9895 27.2229 42.9624 26.0232 44.2061 25.1811L41.9635 21.8689ZM37.6072 27.3464C36.6895 29.6024 36.2598 32.1684 36.2598 35H40.2598C40.2598 32.565 40.63 30.531 41.3124 28.8536L37.6072 27.3464ZM36.2598 35C36.2598 37.831 36.6893 40.3913 37.6094 42.6341L41.3101 41.1159C40.6302 39.4587 40.2598 37.4357 40.2598 35H36.2598ZM37.6117 42.6397C38.5485 44.9036 39.9872 46.7349 41.9385 48.0561L44.1811 44.7439C42.9323 43.8984 41.971 42.7131 41.3078 41.1103L37.6117 42.6397ZM41.9464 48.0615C43.9546 49.4071 46.3722 50.0374 49.0822 50.0748L49.1373 46.0752C47.014 46.0459 45.3983 45.5595 44.1731 44.7385L41.9464 48.0615ZM49.0914 50.0749C51.1583 50.0939 53.0671 49.7241 54.7616 48.8975L53.0079 45.3025C51.9691 45.8092 50.6946 46.0895 49.1281 46.0751L49.0914 50.0749ZM54.7792 48.8889C56.4905 48.0332 57.8744 46.7509 58.9238 45.0961L55.5457 42.9539C54.8618 44.0325 54.0124 44.8001 52.9903 45.3111L54.7792 48.8889ZM58.9296 45.0868C59.979 43.4119 60.6348 41.4052 60.964 39.1373L57.0055 38.5627C56.7347 40.4281 56.2239 41.8714 55.5399 42.9632L58.9296 45.0868ZM58.9848 36.85H52.6348V40.85H58.9848V36.85ZM54.6348 38.85V34.125H50.6348V38.85H54.6348ZM52.6348 36.125H65.3848V32.125H52.6348V36.125ZM63.4002 34.3731C63.4219 34.5463 63.4447 34.8642 63.4608 35.3645L67.4587 35.2355C67.4415 34.7024 67.4143 34.237 67.3693 33.8769L63.4002 34.3731ZM63.4608 35.3645C63.4691 35.6213 63.4752 35.8236 63.4792 35.9728C63.4813 36.0474 63.4827 36.1067 63.4836 36.1517C63.4841 36.1742 63.4844 36.1918 63.4846 36.2051C63.4848 36.2192 63.4848 36.225 63.4848 36.225H67.4848C67.4848 36.0843 67.4748 35.7348 67.4587 35.2355L63.4608 35.3645ZM63.4848 36.225C63.4848 39.3549 62.8651 42.0612 61.6777 44.3921L65.2418 46.2079C66.7544 43.2388 67.4848 39.8951 67.4848 36.225H63.4848ZM61.6755 44.3965C60.5102 46.698 58.8533 48.4815 56.6808 49.785L58.7388 53.215C61.5662 51.5185 63.7427 49.1686 65.2441 46.2034L61.6755 44.3965ZM56.6808 49.785C54.5473 51.0651 51.9266 51.75 48.7348 51.75V55.75C52.5096 55.75 55.8722 54.9349 58.7388 53.215L56.6808 49.785ZM69.0059 53H67.0059V55H69.0059V53ZM69.0059 26V24H67.0059V26H69.0059ZM74.3309 26H76.3309V24H74.3309V26ZM74.3309 32.575L72.7421 33.7899L76.3309 38.4828V32.575H74.3309ZM73.6809 31.725L71.8054 31.0304L71.4225 32.0642L72.0921 32.9399L73.6809 31.725ZM75.0059 29.275L73.4101 28.0693L73.4059 28.075L75.0059 29.275ZM77.0309 27.425L78.0811 29.1271L78.1159 29.1056L78.1498 29.0827L77.0309 27.425ZM79.2309 26.375L79.8274 28.284L79.8396 28.2802L79.8517 28.2762L79.2309 26.375ZM81.7309 25.9L81.8483 27.8965L81.8678 27.8954L81.8872 27.8939L81.7309 25.9ZM84.2059 26H86.2059V24.3057L84.5347 24.0272L84.2059 26ZM84.2059 31.625L83.6459 33.545L86.2059 34.2917V31.625H84.2059ZM81.4309 31.4L81.2726 29.4063L81.2701 29.4065L81.4309 31.4ZM78.6309 32.275L79.5812 34.0348L79.621 34.0133L79.6599 33.99L78.6309 32.275ZM76.5809 34L74.99 32.7879L74.9808 32.8L74.9717 32.8123L76.5809 34ZM75.4309 36.4L77.3553 36.9446L77.3579 36.9353L75.4309 36.4ZM75.0559 53V55H77.0559V53H75.0559ZM71.0059 53V26H67.0059V53H71.0059ZM69.0059 28H74.3309V24H69.0059V28ZM72.3309 26V32.575H76.3309V26H72.3309ZM75.9196 31.3601L75.2696 30.5101L72.0921 32.9399L72.7421 33.7899L75.9196 31.3601ZM75.5564 32.4196C75.8259 31.692 76.1769 31.0469 76.6059 30.475L73.4059 28.075C72.7348 28.9697 72.2025 29.958 71.8054 31.0304L75.5564 32.4196ZM76.6016 30.4807C77.022 29.9242 77.5133 29.4774 78.0811 29.1271L75.9806 25.7229C74.9817 26.3393 74.123 27.1258 73.4101 28.0693L76.6016 30.4807ZM78.1498 29.0827C78.6488 28.7459 79.205 28.4785 79.8274 28.284L78.6343 24.466C77.6567 24.7715 76.7463 25.2041 75.9119 25.7673L78.1498 29.0827ZM79.8517 28.2762C80.5068 28.0623 81.171 27.9364 81.8483 27.8965L81.6134 23.9034C80.5907 23.9636 79.5883 24.1544 78.6101 24.4738L79.8517 28.2762ZM81.8872 27.8939C82.5835 27.8393 83.2453 27.8675 83.8771 27.9728L84.5347 24.0272C83.5664 23.8658 82.5782 23.8274 81.5745 23.9061L81.8872 27.8939ZM82.2059 26V31.625H86.2059V26H82.2059ZM84.7659 29.705C83.6805 29.3884 82.5033 29.3086 81.2726 29.4063L81.5891 33.3937C82.4584 33.3247 83.1312 33.3949 83.6459 33.545L84.7659 29.705ZM81.2701 29.4065C79.9507 29.5129 78.7168 29.8911 77.6019 30.56L79.6599 33.99C80.2116 33.6589 80.8443 33.4538 81.5916 33.3935L81.2701 29.4065ZM77.6806 30.5152C76.6166 31.0898 75.7084 31.8451 74.99 32.7879L78.1717 35.2121C78.52 34.7549 78.9785 34.3602 79.5812 34.0348L77.6806 30.5152ZM74.9717 32.8123C74.2998 33.7226 73.8143 34.7471 73.5038 35.8647L77.3579 36.9353C77.5474 36.2529 77.8286 35.6774 78.19 35.1877L74.9717 32.8123ZM73.5064 35.8554C73.2005 36.9365 73.0559 38.0802 73.0559 39.275H77.0559C77.0559 38.4031 77.1613 37.6302 77.3553 36.9446L73.5064 35.8554ZM73.0559 39.275V53H77.0559V39.275H73.0559ZM75.0559 51H69.0059V55H75.0559V51ZM92.0633 51.975L93.0571 50.2394L93.0571 50.2394L92.0633 51.975ZM87.2133 47.05L85.4591 48.0106L85.465 48.0213L87.2133 47.05ZM87.1883 32.125L88.9605 33.052L88.9634 33.0464L87.1883 32.125ZM91.9133 27.05L90.8906 25.3313L90.8906 25.3313L91.9133 27.05ZM106.038 27.225L104.919 28.8825L104.927 28.888L104.935 28.8934L106.038 27.225ZM110.413 32.75L108.555 33.4905L108.555 33.4905L110.413 32.75ZM111.488 41.175V43.175H113.349L113.483 41.319L111.488 41.175ZM105.513 41.175H103.513V43.175H105.513V41.175ZM105.513 38.975H107.513L107.513 38.9636L105.513 38.975ZM103.963 32.55L105.561 31.3468L105.561 31.3468L103.963 32.55ZM93.6633 32.825L95.2317 34.066L95.2383 34.0576L93.6633 32.825ZM93.6633 45.85L92.1015 47.0994L92.1015 47.0994L93.6633 45.85ZM102.738 47.125L103.779 48.8329L103.786 48.8283L102.738 47.125ZM105.238 44.25L105.817 42.3357L104.159 41.8339L103.426 43.4042L105.238 44.25ZM111.188 46.05L113.029 46.8317L113.9 44.7809L111.767 44.1357L111.188 46.05ZM106.388 51.725L105.331 50.0275L105.325 50.0312L106.388 51.725ZM89.9633 41.175H87.9633V43.175H89.9633V41.175ZM89.9633 36.625V34.625H87.9633V36.625H89.9633ZM108.538 36.625H110.538V34.625H108.538V36.625ZM108.538 41.175V43.175H110.538V41.175H108.538ZM99.2633 51.75C96.8264 51.75 94.7789 51.2252 93.0571 50.2394L91.0695 53.7106C93.481 55.0914 96.2335 55.75 99.2633 55.75V51.75ZM93.0571 50.2394C91.3098 49.2389 89.9528 47.8629 88.9616 46.0787L85.465 48.0213C86.8071 50.4371 88.6834 52.3444 91.0695 53.7106L93.0571 50.2394ZM88.9675 46.0894C88.0004 44.3234 87.4883 42.2457 87.4883 39.8H83.4883C83.4883 42.821 84.1262 45.5766 85.4591 48.0106L88.9675 46.0894ZM87.4883 39.8C87.4883 37.1068 88.0047 34.8793 88.9605 33.052L85.4161 31.198C84.1052 33.7041 83.4883 36.5932 83.4883 39.8H87.4883ZM88.9634 33.0464C89.9338 31.177 91.2553 29.7688 92.936 28.7687L90.8906 25.3313C88.5379 26.7312 86.7095 28.7063 85.4132 31.2036L88.9634 33.0464ZM92.936 28.7687C94.6048 27.7757 96.5757 27.25 98.9133 27.25V23.25C95.9508 23.25 93.2551 23.9243 90.8906 25.3313L92.936 28.7687ZM98.9133 27.25C101.392 27.25 103.358 27.8287 104.919 28.8825L107.157 25.5675C104.818 23.988 102.035 23.25 98.9133 23.25V27.25ZM104.935 28.8934C106.531 29.9484 107.743 31.4512 108.555 33.4905L112.271 32.0095C111.184 29.2822 109.478 27.1016 107.141 25.5566L104.935 28.8934ZM108.555 33.4905C109.368 35.5292 109.711 38.022 109.493 41.031L113.483 41.319C113.733 37.8614 113.359 34.7374 112.271 32.0095L108.555 33.4905ZM111.488 39.175H105.513V43.175H111.488V39.175ZM107.513 41.175V38.975H103.513V41.175H107.513ZM107.513 38.9636C107.496 35.8828 106.966 33.2129 105.561 31.3468L102.366 33.7532C102.994 34.5871 103.497 36.2005 103.513 38.9864L107.513 38.9636ZM105.561 31.3468C104.06 29.3538 101.774 28.525 99.1633 28.525V32.525C100.919 32.525 101.833 33.0462 102.366 33.7532L105.561 31.3468ZM99.1633 28.525C96.2614 28.525 93.7659 29.4488 92.0883 31.5924L95.2383 34.0576C95.9607 33.1346 97.1318 32.525 99.1633 32.525V28.525ZM92.0948 31.584C90.5034 33.5955 89.8633 36.3379 89.8633 39.5H93.8633C93.8633 36.7954 94.4232 35.0879 95.2317 34.066L92.0948 31.584ZM89.8633 39.5C89.8633 42.4997 90.5194 45.1217 92.1015 47.0994L95.225 44.6006C94.4072 43.5783 93.8633 41.967 93.8633 39.5H89.8633ZM92.1015 47.0994C93.7572 49.169 96.139 50.1 98.9133 50.1V46.1C97.0875 46.1 95.9693 45.531 95.225 44.6006L92.1015 47.0994ZM98.9133 50.1C100.694 50.1 102.344 49.7071 103.779 48.8329L101.698 45.4171C100.999 45.8429 100.099 46.1 98.9133 46.1V50.1ZM103.786 48.8283C105.231 47.9393 106.317 46.6689 107.051 45.0958L103.426 43.4042C102.993 44.3311 102.412 44.9774 101.69 45.4217L103.786 48.8283ZM104.659 46.1643L110.609 47.9643L111.767 44.1357L105.817 42.3357L104.659 46.1643ZM109.347 45.2683C108.469 47.3374 107.135 48.9031 105.331 50.0275L107.446 53.4225C109.975 51.8469 111.841 49.6292 113.029 46.8317L109.347 45.2683ZM105.325 50.0312C103.501 51.1761 101.497 51.75 99.2633 51.75V55.75C102.23 55.75 104.975 54.9739 107.452 53.4188L105.325 50.0312ZM91.9633 41.175V36.625H87.9633V41.175H91.9633ZM89.9633 38.625H108.538V34.625H89.9633V38.625ZM106.538 36.625V41.175H110.538V36.625H106.538ZM108.538 39.175H89.9633V43.175H108.538V39.175ZM117.678 52.65L116.707 54.3983L116.715 54.4029L116.723 54.4074L117.678 52.65ZM114.603 49.675L112.854 50.6443L112.859 50.6533L112.864 50.6622L114.603 49.675ZM114.228 42.1L116.073 42.8735L116.077 42.863L114.228 42.1ZM116.228 39.4L117.508 40.9364L117.517 40.9295L117.525 40.9225L116.228 39.4ZM119.728 37.525L119.113 35.6219L119.101 35.6258L119.089 35.6298L119.728 37.525ZM123.528 36.575L123.149 34.6113L123.145 34.6121L123.528 36.575ZM128.278 35.8L128.55 37.7814L128.558 37.7803L128.566 37.7791L128.278 35.8ZM133.653 35L134.643 36.7377L133.353 33.0226L133.653 35ZM131.503 36.225L129.503 36.2071L129.472 39.684L132.493 37.9627L131.503 36.225ZM130.253 32.1L128.812 33.4868L128.812 33.4868L130.253 32.1ZM122.428 31.625L123.323 33.4139L123.323 33.4139L122.428 31.625ZM120.053 34.55L119.455 36.4583L121.343 37.0506L121.955 35.1687L120.053 34.55ZM114.553 32.825L112.633 32.2645L112.084 34.1466L113.955 34.7333L114.553 32.825ZM118.353 27.325L117.169 25.7131L117.162 25.7181L118.353 27.325ZM132.278 26.425L131.486 28.2616L131.492 28.2642L132.278 26.425ZM136.353 30.275L134.561 31.1627L134.566 31.1723L134.571 31.1819L136.353 30.275ZM137.228 33.2L135.238 33.399L135.238 33.4023L137.228 33.2ZM137.378 53V55H139.378V53H137.378ZM132.103 53H130.103V55H132.103V53ZM132.103 47.15L133.574 45.795L130.103 42.0264V47.15H132.103ZM132.978 48.1L134.675 49.1587L135.482 47.8659L134.449 46.745L132.978 48.1ZM128.703 52.4L129.676 54.1475L129.682 54.1441L128.703 52.4ZM127.328 48.225L128.223 50.0139L128.223 50.0139L127.328 48.225ZM129.628 46.45L128.092 45.1696L128.083 45.1806L128.074 45.1916L129.628 46.45ZM130.803 44.475L128.955 43.7115L128.925 43.7837L128.901 43.858L130.803 44.475ZM131.328 41.85L129.331 41.7501L129.33 41.7662L129.329 41.7822L131.328 41.85ZM131.403 39.425L131.973 37.5079L129.403 36.7439V39.425H131.403ZM133.253 39.975L133.561 41.9511L133.823 38.0579L133.253 39.975ZM128.578 40.725L128.249 38.7522L128.249 38.7522L128.578 40.725ZM125.228 41.35L125.614 43.3125L125.63 43.3092L125.647 43.3056L125.228 41.35ZM122.753 41.975L122.134 40.0733L122.107 40.082L122.08 40.0915L122.753 41.975ZM119.853 44L118.15 42.9518L118.135 42.976L118.121 43.0006L119.853 44ZM119.978 47.3L118.298 48.3843L118.306 48.3969L118.314 48.4094L119.978 47.3ZM121.428 48.5L120.572 50.3075L120.581 50.3117L120.59 50.3159L121.428 48.5ZM122.628 51.75C120.924 51.75 119.621 51.4295 118.633 50.8926L116.723 54.4074C118.435 55.3372 120.432 55.75 122.628 55.75V51.75ZM118.649 50.9017C117.591 50.3136 116.845 49.5735 116.342 48.6878L112.864 50.6622C113.761 52.2432 115.065 53.4864 116.707 54.3983L118.649 50.9017ZM116.353 48.7057C115.842 47.7846 115.578 46.7625 115.578 45.6H111.578C111.578 47.4042 111.997 49.0987 112.854 50.6443L116.353 48.7057ZM115.578 45.6C115.578 44.5235 115.757 43.6258 116.073 42.8735L112.384 41.3265C111.833 42.6408 111.578 44.0765 111.578 45.6H115.578ZM116.077 42.863C116.382 42.1227 116.85 41.4853 117.508 40.9364L114.948 37.8636C113.806 38.8147 112.941 39.9773 112.379 41.337L116.077 42.863ZM117.525 40.9225C118.186 40.3597 119.11 39.8439 120.367 39.4202L119.089 35.6298C117.479 36.1727 116.071 36.9069 114.931 37.8775L117.525 40.9225ZM120.343 39.4281C121.332 39.1086 122.518 38.8102 123.912 38.5379L123.145 34.6121C121.638 34.9065 120.291 35.2414 119.113 35.6219L120.343 39.4281ZM123.907 38.5387C125.334 38.2632 126.881 38.0105 128.55 37.7814L128.006 33.8186C126.275 34.0561 124.656 34.3202 123.149 34.6113L123.907 38.5387ZM128.566 37.7791C130.287 37.5285 132.083 37.2612 133.953 36.9774L133.353 33.0226C131.49 33.3054 129.702 33.5715 127.99 33.8209L128.566 37.7791ZM132.663 33.2623L130.513 34.4873L132.493 37.9627L134.643 36.7377L132.663 33.2623ZM133.503 36.2429C133.522 34.1208 133.058 32.1305 131.694 30.7132L128.812 33.4868C129.148 33.8362 129.518 34.5959 129.503 36.2071L133.503 36.2429ZM131.694 30.7132C130.285 29.2487 128.178 28.775 125.953 28.775V32.775C127.762 32.775 128.521 33.1846 128.812 33.4868L131.694 30.7132ZM125.953 28.775C124.413 28.775 122.933 29.1366 121.534 29.8361L123.323 33.4139C124.19 32.9801 125.06 32.775 125.953 32.775V28.775ZM121.534 29.8361C119.849 30.6783 118.74 32.1208 118.151 33.9313L121.955 35.1687C122.266 34.2126 122.74 33.7051 123.323 33.4139L121.534 29.8361ZM120.652 32.6417L115.152 30.9167L113.955 34.7333L119.455 36.4583L120.652 32.6417ZM116.473 33.3855C117.02 31.5104 118.037 30.0487 119.544 28.9319L117.162 25.7181C114.936 27.3679 113.419 29.5729 112.633 32.2645L116.473 33.3855ZM119.537 28.9369C120.972 27.8827 123.044 27.25 125.953 27.25V23.25C122.496 23.25 119.501 24.0006 117.169 25.7131L119.537 28.9369ZM125.953 27.25C128.138 27.25 129.967 27.6064 131.486 28.2615L133.07 24.5885C130.956 23.6769 128.569 23.25 125.953 23.25V27.25ZM131.492 28.2642C132.888 28.8607 133.889 29.8071 134.561 31.1627L138.145 29.3873C137.05 27.1762 135.334 25.556 133.064 24.5858L131.492 28.2642ZM134.571 31.1819C134.948 31.9244 135.164 32.6605 135.238 33.399L139.218 33.001C139.092 31.7395 138.725 30.5256 138.136 29.3681L134.571 31.1819ZM135.238 33.4023C135.33 34.3078 135.378 35.3142 135.378 36.425H139.378C139.378 35.2024 139.326 34.0589 139.218 32.9977L135.238 33.4023ZM135.378 36.425V53H139.378V36.425H135.378ZM137.378 51H132.103V55H137.378V51ZM134.103 53V47.15H130.103V53H134.103ZM130.632 48.505L131.507 49.455L134.449 46.745L133.574 45.795L130.632 48.505ZM131.281 47.0413C130.203 48.7702 129.005 49.9371 127.724 50.6559L129.682 54.1441C131.668 53.0295 133.32 51.3298 134.675 49.1587L131.281 47.0413ZM127.73 50.6525C126.49 51.3428 124.825 51.75 122.628 51.75V55.75C125.298 55.75 127.683 55.2572 129.676 54.1475L127.73 50.6525ZM123.828 50.95C125.425 50.95 126.915 50.6678 128.223 50.0139L126.434 46.4361C125.808 46.7488 124.964 46.95 123.828 46.95V50.95ZM128.223 50.0139C129.394 49.428 130.404 48.6702 131.183 47.7084L128.074 45.1916C127.719 45.6298 127.195 46.0554 126.434 46.4361L128.223 50.0139ZM131.165 47.7304C131.85 46.9081 132.402 46.028 132.706 45.092L128.901 43.858C128.804 44.1553 128.573 44.5919 128.092 45.1696L131.165 47.7304ZM132.652 45.2385C133.075 44.2139 133.287 43.0967 133.327 41.9178L129.329 41.7822C129.303 42.57 129.165 43.2028 128.955 43.7115L132.652 45.2385ZM133.326 41.9499C133.376 40.9343 133.403 40.0889 133.403 39.425H129.403C129.403 39.9944 129.38 40.7657 129.331 41.7501L133.326 41.9499ZM130.833 41.3421L132.683 41.8921L133.823 38.0579L131.973 37.5079L130.833 41.3421ZM132.945 37.9989C131.124 38.2829 129.558 38.5341 128.249 38.7522L128.907 42.6978C130.198 42.4826 131.749 42.2338 133.561 41.9511L132.945 37.9989ZM128.249 38.7522C126.93 38.9722 125.781 39.1861 124.809 39.3944L125.647 43.3056C126.542 43.1139 127.627 42.9112 128.907 42.6978L128.249 38.7522ZM124.843 39.3875C123.85 39.5825 122.944 39.8095 122.134 40.0733L123.372 43.8767C123.996 43.6738 124.74 43.4841 125.614 43.3125L124.843 39.3875ZM122.08 40.0915C121.258 40.3853 120.501 40.7493 119.843 41.2036L122.114 44.4964C122.422 44.284 122.848 44.0647 123.426 43.8585L122.08 40.0915ZM119.843 41.2036C119.166 41.6706 118.583 42.2481 118.15 42.9518L121.556 45.0482C121.657 44.8853 121.824 44.6961 122.114 44.4964L119.843 41.2036ZM118.121 43.0006C117.668 43.785 117.478 44.6496 117.478 45.525H121.478C121.478 45.2337 121.538 45.0817 121.585 44.9994L118.121 43.0006ZM117.478 45.525C117.478 46.5425 117.738 47.5171 118.298 48.3843L121.659 46.2157C121.551 46.0495 121.478 45.8408 121.478 45.525H117.478ZM118.314 48.4094C118.88 49.258 119.666 49.8784 120.572 50.3075L122.284 46.6925C121.923 46.5216 121.743 46.342 121.642 46.1906L118.314 48.4094ZM120.59 50.3159C121.574 50.77 122.679 50.95 123.828 50.95V46.95C123.077 46.95 122.582 46.83 122.266 46.6841L120.59 50.3159ZM158.212 53L158.579 54.966L160.212 54.6608V53H158.212ZM152.962 53.425L153.02 51.4258L153.01 51.4256L153.001 51.4254L152.962 53.425ZM148.387 52.5L147.574 54.3276L147.584 54.3318L147.593 54.3359L148.387 52.5ZM145.312 49.675L143.544 50.6096L143.55 50.6212L143.556 50.6327L145.312 49.675ZM144.337 46.1L146.336 46.0452L144.337 46.1ZM144.287 18.5V16.5H142.287V18.5H144.287ZM150.287 18.5H152.287V16.5H150.287V18.5ZM150.312 44.475L148.312 44.5158L148.313 44.5362L148.313 44.5566L150.312 44.475ZM150.837 46.475L152.552 45.446L152.547 45.4379L152.542 45.4299L150.837 46.475ZM153.712 48.15L153.888 46.1578L153.888 46.1578L153.712 48.15ZM158.212 47.95H160.212V45.631L157.918 45.9717L158.212 47.95ZM139.387 30.725H137.387V32.725H139.387V30.725ZM139.387 26V24H137.387V26H139.387ZM158.212 26H160.212V24H158.212V26ZM158.212 30.725V32.725H160.212V30.725H158.212ZM157.844 51.034C156.193 51.3426 154.586 51.4715 153.02 51.4258L152.903 55.4242C154.771 55.4785 156.663 55.324 158.579 54.966L157.844 51.034ZM153.001 51.4254C151.52 51.3964 150.257 51.1296 149.18 50.6641L147.593 54.3359C149.216 55.0371 151.003 55.387 152.923 55.4246L153.001 51.4254ZM149.199 50.6724C148.246 50.2488 147.555 49.6105 147.068 48.7173L143.556 50.6327C144.469 52.3062 145.828 53.5512 147.574 54.3276L149.199 50.6724ZM147.08 48.7404C146.595 47.8221 146.36 46.9295 146.336 46.0452L142.337 46.1548C142.38 47.7039 142.796 49.1946 143.544 50.6096L147.08 48.7404ZM146.336 46.0452C146.303 44.8508 146.287 43.4945 146.287 41.975H142.287C142.287 43.5222 142.304 44.9159 142.337 46.1548L146.336 46.0452ZM146.287 41.975V18.5H142.287V41.975H146.287ZM144.287 20.5H150.287V16.5H144.287V20.5ZM148.287 18.5V41.625H152.287V18.5H148.287ZM148.287 41.625C148.287 42.7179 148.295 43.682 148.312 44.5158L152.311 44.4342C152.295 43.6347 152.287 42.6988 152.287 41.625H148.287ZM148.313 44.5566C148.356 45.6 148.585 46.6286 149.132 47.5201L152.542 45.4299C152.455 45.2881 152.334 44.9833 152.31 44.3934L148.313 44.5566ZM149.122 47.504C150.098 49.1318 151.679 49.9777 153.535 50.1422L153.888 46.1578C153.111 46.0889 152.775 45.8182 152.552 45.446L149.122 47.504ZM153.535 50.1422C155.046 50.2761 156.709 50.1952 158.506 49.9283L157.918 45.9717C156.348 46.2048 155.011 46.2573 153.888 46.1578L153.535 50.1422ZM156.212 47.95V53H160.212V47.95H156.212ZM141.387 30.725V26H137.387V30.725H141.387ZM139.387 28H158.212V24H139.387V28ZM156.212 26V30.725H160.212V26H156.212ZM158.212 28.725H139.387V32.725H158.212V28.725ZM177.002 51.4L175.952 53.1022L175.96 53.1071L177.002 51.4ZM171.077 44.8L169.278 45.6731L169.282 45.6817L171.077 44.8ZM171.077 25.2L169.282 24.3183L169.278 24.3269L171.077 25.2ZM177.002 18.625L178.044 20.3321L178.052 20.3272L177.002 18.625ZM196.627 19.375L195.424 20.9727L195.43 20.9773L196.627 19.375ZM202.452 27.75L202.984 29.6781L204.988 29.1256L204.359 27.1447L202.452 27.75ZM196.377 29.425L194.461 29.996L195.02 31.8739L196.909 31.3531L196.377 29.425ZM192.802 23.925L191.561 25.4928L191.57 25.5003L192.802 23.925ZM180.202 23.55L179.089 21.8885L179.081 21.8939L180.202 23.55ZM176.577 28.125L174.73 27.358L174.727 27.3659L176.577 28.125ZM175.352 35L173.352 34.9873V35H175.352ZM176.552 41.9L174.7 42.6536L174.704 42.6631L174.708 42.6726L176.552 41.9ZM180.202 46.45L181.316 44.7885L181.316 44.7885L180.202 46.45ZM192.802 46.075L191.561 44.5072L191.561 44.5072L192.802 46.075ZM196.377 40.575L196.909 38.6469L195.024 38.1271L194.462 40.0003L196.377 40.575ZM202.452 42.25L204.359 42.8553L204.988 40.8744L202.984 40.3219L202.452 42.25ZM196.627 50.65L197.824 52.2523L197.83 52.2477L196.627 50.65ZM186.252 51.75C182.947 51.75 180.24 51.0332 178.044 49.6929L175.96 53.1071C178.898 54.9001 182.358 55.75 186.252 55.75V51.75ZM178.052 49.6978C175.82 48.3206 174.097 46.4112 172.873 43.9183L169.282 45.6817C170.825 48.8222 173.052 51.3127 175.952 53.1022L178.052 49.6978ZM172.877 43.9269C171.665 41.4287 171.027 38.4703 171.027 35H167.027C167.027 38.963 167.757 42.538 169.278 45.6731L172.877 43.9269ZM171.027 35C171.027 31.5297 171.665 28.5713 172.877 26.0731L169.278 24.3269C167.757 27.462 167.027 31.037 167.027 35H171.027ZM172.873 26.0817C174.096 23.5905 175.817 21.6919 178.044 20.3321L175.96 16.9179C173.055 18.6914 170.825 21.1762 169.282 24.3183L172.873 26.0817ZM178.052 20.3272C180.247 18.9734 182.951 18.25 186.252 18.25V14.25C182.354 14.25 178.891 15.1099 175.952 16.9228L178.052 20.3272ZM186.252 18.25C190.057 18.25 193.069 19.1991 195.424 20.9727L197.83 17.7773C194.652 15.3842 190.748 14.25 186.252 14.25V18.25ZM195.43 20.9773C197.839 22.7764 199.547 25.2081 200.546 28.3553L204.359 27.1447C203.125 23.2586 200.949 20.107 197.824 17.7727L195.43 20.9773ZM201.921 25.8219L195.846 27.4969L196.909 31.3531L202.984 29.6781L201.921 25.8219ZM198.294 28.854C197.494 26.1671 196.091 23.9584 194.035 22.3497L191.57 25.5003C192.88 26.5249 193.861 27.9829 194.461 29.996L198.294 28.854ZM194.044 22.3572C191.927 20.6801 189.272 19.925 186.252 19.925V23.925C188.6 23.925 190.311 24.5033 191.561 25.4928L194.044 22.3572ZM186.252 19.925C183.536 19.925 181.107 20.5364 179.089 21.8885L181.316 25.2115C182.531 24.397 184.136 23.925 186.252 23.925V19.925ZM179.081 21.8939C177.125 23.2185 175.681 25.0687 174.73 27.358L178.424 28.892C179.107 27.2479 180.08 26.0482 181.324 25.2061L179.081 21.8939ZM174.727 27.3659C173.809 29.6038 173.37 32.1595 173.352 34.9873L177.352 35.0127C177.368 32.5738 177.746 30.5462 178.428 28.8841L174.727 27.3659ZM173.352 35C173.352 37.8316 173.782 40.3976 174.7 42.6536L178.405 41.1464C177.723 39.469 177.352 37.435 177.352 35H173.352ZM174.708 42.6726C175.662 44.9516 177.119 46.791 179.089 48.1115L181.316 44.7885C180.053 43.9423 179.076 42.7484 178.397 41.1274L174.708 42.6726ZM179.089 48.1115C181.107 49.4636 183.536 50.075 186.252 50.075V46.075C184.136 46.075 182.531 45.603 181.316 44.7885L179.089 48.1115ZM186.252 50.075C189.272 50.075 191.927 49.3199 194.044 47.6428L191.561 44.5072C190.311 45.4967 188.6 46.075 186.252 46.075V50.075ZM194.044 47.6428C196.09 46.0219 197.492 43.8205 198.293 41.1497L194.462 40.0003C193.863 41.9961 192.881 43.4614 191.561 44.5072L194.044 47.6428ZM195.846 42.5031L201.921 44.1781L202.984 40.3219L196.909 38.6469L195.846 42.5031ZM200.546 41.6447C199.546 44.793 197.837 47.2355 195.424 49.0523L197.83 52.2477C200.951 49.8978 203.125 46.7404 204.359 42.8553L200.546 41.6447ZM195.43 49.0477C193.075 50.8073 190.06 51.75 186.252 51.75V55.75C190.744 55.75 194.647 54.626 197.824 52.2523L195.43 49.0477ZM211.291 51.925L212.325 50.2125L212.325 50.2125L211.291 51.925ZM206.591 46.9L204.811 47.811L204.815 47.8192L204.819 47.8275L206.591 46.9ZM206.641 32.05L204.875 31.1117L204.875 31.1117L206.641 32.05ZM211.366 27.05L210.344 25.3313L210.344 25.3313L211.366 27.05ZM225.466 27.075L226.5 25.3625L226.5 25.3625L225.466 27.075ZM230.166 32.125L228.392 33.0468L228.394 33.0525L230.166 32.125ZM230.141 46.925L228.372 45.9924L228.369 45.9975L230.141 46.925ZM225.441 51.95L226.464 53.6688L226.475 53.6625L225.441 51.95ZM223.716 45.7L222.1 44.5217L222.1 44.5217L223.716 45.7ZM223.691 33.25L222.095 34.4554L222.102 34.4636L223.691 33.25ZM214.366 32L215.506 33.6434L215.512 33.6397L214.366 32ZM212.066 35.025L213.93 35.7511L213.933 35.743L212.066 35.025ZM213.091 45.775L211.495 46.9804L211.503 46.9899L211.51 46.9993L213.091 45.775ZM218.366 51.75C215.976 51.75 213.986 51.2149 212.325 50.2125L210.258 53.6375C212.63 55.0685 215.357 55.75 218.366 55.75V51.75ZM212.325 50.2125C210.629 49.1894 209.314 47.7891 208.363 45.9725L204.819 47.8275C206.102 50.2775 207.921 52.2273 210.258 53.6375L212.325 50.2125ZM208.372 45.989C207.437 44.1612 206.941 42.0151 206.941 39.5H202.941C202.941 42.5516 203.546 45.3388 204.811 47.811L208.372 45.989ZM206.941 39.5C206.941 36.9372 207.452 34.7865 208.408 32.9883L204.875 31.1117C203.564 33.5801 202.941 36.3961 202.941 39.5H206.941ZM208.408 32.9883C209.375 31.1683 210.697 29.7758 212.389 28.7687L210.344 25.3313C208.003 26.7242 206.175 28.6651 204.875 31.1117L208.408 32.9883ZM212.389 28.7687C214.058 27.7757 216.029 27.25 218.366 27.25V23.25C215.404 23.25 212.708 23.9243 210.344 25.3313L212.389 28.7687ZM218.366 27.25C220.776 27.25 222.774 27.7863 224.433 28.7875L226.5 25.3625C224.126 23.9304 221.39 23.25 218.366 23.25V27.25ZM224.433 28.7875C226.125 29.8083 227.439 31.2138 228.392 33.0468L231.941 31.2032C230.66 28.7362 228.841 26.7751 226.5 25.3625L224.433 28.7875ZM228.394 33.0525C229.34 34.8579 229.841 36.9891 229.841 39.5H233.841C233.841 36.4442 233.227 33.6587 231.938 31.1975L228.394 33.0525ZM229.841 39.5C229.841 42.0247 229.332 44.1709 228.372 45.9924L231.911 47.8576C233.217 45.3791 233.841 42.5753 233.841 39.5H229.841ZM228.369 45.9975C227.419 47.8141 226.104 49.2144 224.408 50.2375L226.475 53.6625C228.812 52.2523 230.631 50.3025 231.913 47.8525L228.369 45.9975ZM224.419 50.2313C222.756 51.2209 220.762 51.75 218.366 51.75V55.75C221.371 55.75 224.094 55.0791 226.464 53.6687L224.419 50.2313ZM218.366 50.1C221.253 50.1 223.708 49.1067 225.332 46.8783L222.1 44.5217C221.392 45.4933 220.28 46.1 218.366 46.1V50.1ZM225.332 46.8783C226.811 44.8512 227.466 42.3381 227.466 39.5H223.466C223.466 41.7286 222.956 43.3488 222.1 44.5217L225.332 46.8783ZM227.466 39.5C227.466 36.5936 226.809 34.0372 225.281 32.0364L222.102 34.4636C222.941 35.5628 223.466 37.1731 223.466 39.5H227.466ZM225.287 32.0446C223.647 29.8725 221.216 28.9 218.366 28.9V32.9C220.25 32.9 221.369 33.4942 222.095 34.4554L225.287 32.0446ZM218.366 28.9C216.448 28.9 214.686 29.3375 213.221 30.3603L215.512 33.6397C216.147 33.1959 217.052 32.9 218.366 32.9V28.9ZM213.227 30.3566C211.829 31.3262 210.828 32.6746 210.2 34.307L213.933 35.743C214.305 34.7754 214.838 34.1071 215.506 33.6434L213.227 30.3566ZM210.203 34.2989C209.594 35.8609 209.316 37.6079 209.316 39.5H213.316C213.316 37.9921 213.539 36.7557 213.93 35.7511L210.203 34.2989ZM209.316 39.5C209.316 42.4078 209.975 44.967 211.495 46.9804L214.687 44.5696C213.841 43.4496 213.316 41.8255 213.316 39.5H209.316ZM211.51 46.9993C213.16 49.1305 215.557 50.1 218.366 50.1V46.1C216.542 46.1 215.423 45.5195 214.673 44.5507L211.51 46.9993ZM240.175 51.875L241.294 50.2178L241.294 50.2178L240.175 51.875ZM235.875 46.775L234.067 47.63L234.067 47.63L235.875 46.775ZM235.875 32.2L234.072 31.3336L234.069 31.3396L235.875 32.2ZM240.25 27.125L241.345 28.7982L241.356 28.7914L240.25 27.125ZM253.35 27.125L252.18 28.7472L252.189 28.7535L252.197 28.7598L253.35 27.125ZM257.325 46.775L259.17 47.5473L259.172 47.5422L257.325 46.775ZM253.3 51.875L254.448 53.5127L254.448 53.5127L253.3 51.875ZM251.5 47.25L252.695 48.8533L252.7 48.85L251.5 47.25ZM253.675 44.125L251.787 43.4643L251.783 43.4749L251.78 43.4854L253.675 44.125ZM253.675 34.875L251.78 35.5146L251.784 35.5289L251.79 35.5431L253.675 34.875ZM251.55 31.775L250.324 33.3552L250.332 33.3618L250.341 33.3684L251.55 31.775ZM243.8 31.85L244.996 33.453L245.004 33.447L245.012 33.4409L243.8 31.85ZM241.475 35.05L243.347 35.7523L243.35 35.7446L241.475 35.05ZM241.45 44L239.567 44.6741L239.572 44.6882L239.577 44.7022L241.45 44ZM243.725 47.175L242.504 48.7593L242.504 48.7593L243.725 47.175ZM254.375 53H252.375V55H254.375V53ZM254.375 34.05H256.375V32.05H254.375V34.05ZM253.625 34.05H251.625V36.05H253.625V34.05ZM253.625 17V15H251.625V17H253.625ZM259.7 17H261.7V15H259.7V17ZM259.7 53V55H261.7V53H259.7ZM246.675 51.75C244.544 51.75 242.777 51.2197 241.294 50.2178L239.055 53.5322C241.272 55.0303 243.839 55.75 246.675 55.75V51.75ZM241.294 50.2178C239.761 49.1818 238.556 47.7677 237.683 45.92L234.067 47.63C235.226 50.0823 236.888 52.0682 239.055 53.5322L241.294 50.2178ZM237.683 45.92C236.808 44.0714 236.35 41.9444 236.35 39.5H232.35C232.35 42.4556 232.907 45.1786 234.067 47.63L237.683 45.92ZM236.35 39.5C236.35 37.0179 236.81 34.8859 237.68 33.0604L234.069 31.3396C232.906 33.7807 232.35 36.5155 232.35 39.5H236.35ZM237.677 33.0664C238.563 31.2243 239.785 29.8199 241.345 28.7982L239.154 25.4518C236.947 26.8968 235.253 28.8757 234.072 31.3336L237.677 33.0664ZM241.356 28.7914C242.87 27.7861 244.691 27.25 246.9 27.25V23.25C244.008 23.25 241.396 23.9639 239.144 25.4586L241.356 28.7914ZM246.9 27.25C249.133 27.25 250.851 27.7889 252.18 28.7472L254.519 25.5028C252.382 23.9611 249.8 23.25 246.9 23.25V27.25ZM252.197 28.7598C253.613 29.7574 254.712 31.1373 255.48 32.9723L259.169 31.4277C258.138 28.9627 256.586 26.9593 254.502 25.4902L252.197 28.7598ZM255.48 32.9723C256.262 34.8406 256.675 37.0051 256.675 39.5H260.675C260.675 36.5615 260.187 33.8594 259.169 31.4277L255.48 32.9723ZM256.675 39.5C256.675 41.9576 256.263 44.1167 255.478 46.0078L259.172 47.5422C260.186 45.0999 260.675 42.4091 260.675 39.5H256.675ZM255.48 46.0027C254.715 47.8297 253.604 49.2195 252.152 50.2373L254.448 53.5127C256.562 52.0305 258.134 50.0203 259.169 47.5473L255.48 46.0027ZM252.152 50.2373C250.77 51.2058 248.985 51.75 246.675 51.75V55.75C249.631 55.75 252.263 55.0442 254.448 53.5127L252.152 50.2373ZM247.6 50.35C249.511 50.35 251.271 49.9153 252.695 48.8533L250.304 45.6467C249.761 46.0514 248.922 46.35 247.6 46.35V50.35ZM252.7 48.85C254.063 47.8276 255.007 46.4309 255.57 44.7646L251.78 43.4854C251.442 44.4858 250.936 45.1724 250.3 45.65L252.7 48.85ZM255.562 44.7857C256.119 43.1962 256.375 41.4233 256.375 39.5H252.375C252.375 41.0767 252.164 42.3871 251.787 43.4643L255.562 44.7857ZM256.375 39.5C256.375 37.5633 256.12 35.7863 255.56 34.2069L251.79 35.5431C252.163 36.597 252.375 37.9034 252.375 39.5H256.375ZM255.57 34.2354C255.013 32.5849 254.093 31.1939 252.758 30.1816L250.341 33.3684C250.94 33.8227 251.437 34.4984 251.78 35.5146L255.57 34.2354ZM252.776 30.1948C251.377 29.11 249.662 28.65 247.8 28.65V32.65C249.004 32.65 249.789 32.94 250.324 33.3552L252.776 30.1948ZM247.8 28.65C245.846 28.65 244.058 29.1385 242.588 30.2591L245.012 33.4409C245.641 32.9615 246.52 32.65 247.8 32.65V28.65ZM242.604 30.247C241.214 31.2838 240.219 32.6805 239.599 34.3554L243.35 35.7446C243.73 34.7195 244.285 33.9829 244.996 33.453L242.604 30.247ZM239.602 34.3478C239.006 35.9361 238.725 37.6616 238.725 39.5H242.725C242.725 38.0717 242.943 36.8306 243.347 35.7522L239.602 34.3478ZM238.725 39.5C238.725 41.3457 238.995 43.0779 239.567 44.6741L243.333 43.3259C242.937 42.2221 242.725 40.9543 242.725 39.5H238.725ZM239.577 44.7022C240.193 46.3452 241.16 47.724 242.504 48.7593L244.945 45.5907C244.256 45.0593 243.706 44.3215 243.322 43.2978L239.577 44.7022ZM242.504 48.7593C243.942 49.8674 245.691 50.35 247.6 50.35V46.35C246.375 46.35 245.54 46.0492 244.945 45.5907L242.504 48.7593ZM256.375 53V34.05H252.375V53H256.375ZM254.375 32.05H253.625V36.05H254.375V32.05ZM255.625 34.05V17H251.625V34.05H255.625ZM253.625 19H259.7V15H253.625V19ZM257.7 17V53H261.7V17H257.7ZM259.7 51H254.375V55H259.7V51ZM270.284 51.975L271.278 50.2394L271.278 50.2394L270.284 51.975ZM265.434 47.05L263.68 48.0106L263.686 48.0213L265.434 47.05ZM265.409 32.125L267.181 33.052L267.184 33.0464L265.409 32.125ZM270.134 27.05L269.111 25.3313L269.111 25.3313L270.134 27.05ZM284.259 27.225L283.14 28.8825L283.148 28.888L283.156 28.8934L284.259 27.225ZM288.634 32.75L286.776 33.4905L286.776 33.4905L288.634 32.75ZM289.709 41.175V43.175H291.57L291.704 41.319L289.709 41.175ZM283.734 41.175H281.734V43.175H283.734V41.175ZM283.734 38.975H285.734L285.734 38.9636L283.734 38.975ZM282.184 32.55L283.782 31.3468L283.782 31.3468L282.184 32.55ZM271.884 32.825L273.452 34.066L273.459 34.0576L271.884 32.825ZM271.884 45.85L270.322 47.0994L270.322 47.0994L271.884 45.85ZM280.959 47.125L282 48.8329L282.007 48.8283L280.959 47.125ZM283.459 44.25L284.038 42.3357L282.379 41.8339L281.647 43.4042L283.459 44.25ZM289.409 46.05L291.25 46.8317L292.121 44.7809L289.988 44.1357L289.409 46.05ZM284.609 51.725L283.551 50.0275L283.545 50.0312L284.609 51.725ZM268.184 41.175H266.184V43.175H268.184V41.175ZM268.184 36.625V34.625H266.184V36.625H268.184ZM286.759 36.625H288.759V34.625H286.759V36.625ZM286.759 41.175V43.175H288.759V41.175H286.759ZM277.484 51.75C275.047 51.75 273 51.2252 271.278 50.2394L269.29 53.7106C271.702 55.0914 274.454 55.75 277.484 55.75V51.75ZM271.278 50.2394C269.531 49.2389 268.173 47.8629 267.182 46.0787L263.686 48.0213C265.028 50.4371 266.904 52.3444 269.29 53.7106L271.278 50.2394ZM267.188 46.0894C266.221 44.3234 265.709 42.2457 265.709 39.8H261.709C261.709 42.821 262.347 45.5766 263.68 48.0106L267.188 46.0894ZM265.709 39.8C265.709 37.1068 266.225 34.8793 267.181 33.052L263.637 31.198C262.326 33.7041 261.709 36.5932 261.709 39.8H265.709ZM267.184 33.0464C268.154 31.177 269.476 29.7688 271.157 28.7687L269.111 25.3313C266.759 26.7312 264.93 28.7063 263.634 31.2036L267.184 33.0464ZM271.157 28.7687C272.826 27.7757 274.796 27.25 277.134 27.25V23.25C274.172 23.25 271.476 23.9243 269.111 25.3313L271.157 28.7687ZM277.134 27.25C279.612 27.25 281.579 27.8287 283.14 28.8825L285.378 25.5675C283.039 23.988 280.256 23.25 277.134 23.25V27.25ZM283.156 28.8934C284.752 29.9484 285.963 31.4512 286.776 33.4905L290.492 32.0095C289.405 29.2822 287.699 27.1016 285.362 25.5566L283.156 28.8934ZM286.776 33.4905C287.589 35.5292 287.931 38.022 287.714 41.031L291.704 41.319C291.953 37.8614 291.579 34.7374 290.492 32.0095L286.776 33.4905ZM289.709 39.175H283.734V43.175H289.709V39.175ZM285.734 41.175V38.975H281.734V41.175H285.734ZM285.734 38.9636C285.716 35.8828 285.187 33.2129 283.782 31.3468L280.586 33.7532C281.214 34.5871 281.718 36.2005 281.734 38.9864L285.734 38.9636ZM283.782 31.3468C282.281 29.3538 279.995 28.525 277.384 28.525V32.525C279.14 32.525 280.054 33.0462 280.586 33.7532L283.782 31.3468ZM277.384 28.525C274.482 28.525 271.987 29.4488 270.309 31.5924L273.459 34.0576C274.181 33.1346 275.353 32.525 277.384 32.525V28.525ZM270.316 31.584C268.724 33.5955 268.084 36.3379 268.084 39.5H272.084C272.084 36.7954 272.644 35.0879 273.452 34.066L270.316 31.584ZM268.084 39.5C268.084 42.4997 268.74 45.1217 270.322 47.0994L273.446 44.6006C272.628 43.5783 272.084 41.967 272.084 39.5H268.084ZM270.322 47.0994C271.978 49.169 274.36 50.1 277.134 50.1V46.1C275.308 46.1 274.19 45.531 273.446 44.6006L270.322 47.0994ZM277.134 50.1C278.915 50.1 280.565 49.7071 282 48.8329L279.918 45.4171C279.22 45.8429 278.32 46.1 277.134 46.1V50.1ZM282.007 48.8283C283.452 47.9393 284.537 46.6689 285.271 45.0958L281.647 43.4042C281.214 44.3311 280.633 44.9774 279.911 45.4217L282.007 48.8283ZM282.88 46.1643L288.83 47.9643L289.988 44.1357L284.038 42.3357L282.88 46.1643ZM287.568 45.2683C286.689 47.3374 285.356 48.9031 283.551 50.0275L285.667 53.4225C288.195 51.8469 290.062 49.6292 291.25 46.8317L287.568 45.2683ZM283.545 50.0312C281.722 51.1761 279.717 51.75 277.484 51.75V55.75C280.451 55.75 283.196 54.9739 285.673 53.4188L283.545 50.0312ZM270.184 41.175V36.625H266.184V41.175H270.184ZM268.184 38.625H286.759V34.625H268.184V38.625ZM284.759 36.625V41.175H288.759V36.625H284.759ZM286.759 39.175H268.184V43.175H286.759V39.175ZM302.887 17V15H301.351L300.955 16.4847L302.887 17ZM308.937 17L310.87 17.5153L311.54 15H308.937V17ZM299.337 53V55H300.874L301.27 53.5153L299.337 53ZM293.287 53L291.355 52.4847L290.684 55H293.287V53ZM302.887 19H308.937V15H302.887V19ZM307.005 16.4847L297.405 52.4847L301.27 53.5153L310.87 17.5153L307.005 16.4847ZM299.337 51H293.287V55H299.337V51ZM295.22 53.5153L304.82 17.5153L300.955 16.4847L291.355 52.4847L295.22 53.5153ZM323.268 49.25L321.854 50.6642L323.266 52.077L324.681 50.6657L323.268 49.25ZM319.543 45.525L318.15 44.0899L316.693 45.5038L318.129 46.9392L319.543 45.525ZM328.068 37.25L329.461 38.6851L330.939 37.25L329.461 35.8149L328.068 37.25ZM319.543 28.975L318.129 27.5608L316.693 28.9962L318.15 30.4101L319.543 28.975ZM323.268 25.25L324.681 23.8343L323.266 22.423L321.854 23.8358L323.268 25.25ZM335.293 37.25L336.706 38.6657L338.124 37.25L336.706 35.8343L335.293 37.25ZM324.682 47.8358L320.957 44.1108L318.129 46.9392L321.854 50.6642L324.682 47.8358ZM320.936 46.9601L329.461 38.6851L326.675 35.8149L318.15 44.0899L320.936 46.9601ZM329.461 35.8149L320.936 27.5399L318.15 30.4101L326.675 38.6851L329.461 35.8149ZM320.957 30.3892L324.682 26.6642L321.854 23.8358L318.129 27.5608L320.957 30.3892ZM321.855 26.6657L333.88 38.6657L336.706 35.8343L324.681 23.8343L321.855 26.6657ZM333.88 35.8343L321.855 47.8343L324.681 50.6657L336.706 38.6657L333.88 35.8343Z" fill="#8257E5"/>
</g>
<defs>
<filter id="filter0_i_316_132" x="7" y="16.25" width="328.293" height="41.5" filterUnits="userSpaceOnUse" color-interpolation-filters="sRGB">
<feFlood flood-opacity="0" result="BackgroundImageFix"/>
<feBlend mode="normal" in="SourceGraphic" in2="BackgroundImageFix" result="shape"/>
<feColorMatrix in="SourceAlpha" type="matrix" values="0 0 0 0 0 0 0 0 0 0 0 0 0 0 0 0 0 0 127 0" result="hardAlpha"/>
<feOffset dy="4"/>
<feGaussianBlur stdDeviation="2"/>
<feComposite in2="hardAlpha" operator="arithmetic" k2="-1" k3="1"/>
<feColorMatrix type="matrix" values="0 0 0 0 0 0 0 0 0 0 0 0 0 0 0 0 0 0 0.25 0"/>
<feBlend mode="normal" in2="shape" result="effect1_innerShadow_316_132"/>
</filter>
</defs>
</svg>
